<svg width="159" height="45" xmlns="http://www.w3.org/2000/svg"><path d="M31.45 3.639A6.633 6.633 0 0 1 37.363 0C41.028 0 44 2.988 44 6.675a6.679 6.679 0 0 1-3.135 5.671h.005c-1.261 1.023-1.892 1.783-1.892 2.279 0 .494.723 1.291 2.169 2.39A6.678 6.678 0 0 1 44 22.5a6.68 6.68 0 0 1-3.438 5.85h.053c-1.111.95-1.667 1.65-1.667 2.1 0 .436.65 1.177 1.948 2.223A6.679 6.679 0 0 1 44 38.325C44 42.012 41.028 45 37.363 45c-3.666 0-6.638-2.988-6.638-6.675a6.679 6.679 0 0 1 3.666-5.97c1.112-.806 1.669-1.44 1.669-1.905 0-.502-.65-1.211-1.947-2.128a6.68 6.68 0 0 1-3.388-5.822 6.679 6.679 0 0 1 3.646-5.96c1.194-.726 1.79-1.365 1.79-1.915 0-.575-.68-1.283-2.04-2.124a6.688 6.688 0 0 1-2.576-2.61c-.712-1.153-1.333-1.73-1.863-1.73-.528 0-1.148.574-1.86 1.722A6.63 6.63 0 0 1 22 13.35a6.63 6.63 0 0 1-5.818-3.46c-.712-1.152-1.333-1.729-1.863-1.729-.528 0-1.148.574-1.86 1.722a6.63 6.63 0 0 1-5.822 3.467C2.972 13.35 0 10.362 0 6.675S2.972 0 6.637 0a6.633 6.633 0 0 1 5.902 3.617c.644 1.056 1.237 1.584 1.78 1.584.544 0 1.134-.524 1.768-1.573v.01A6.633 6.633 0 0 1 22 0a6.633 6.633 0 0 1 5.901 3.617c.645 1.056 1.238 1.584 1.781 1.584.544 0 1.133-.524 1.768-1.573v.011zM21.39 29.147c-.892.008-1.518.04-1.878.098-.811.13-1.442.286-2.036.51-1.024.385-1.816.918-2.374 1.475-.91.91-1.547 2.699-1.809 5.053-.04.404-.062.81-.069 1.215.033.27.05.547.05.827 0 3.687-2.971 6.675-6.637 6.675C2.972 45 0 42.012 0 38.325s2.972-6.675 6.637-6.675c.173 0 .345.007.514.02.868-.035 1.496-.086 1.883-.151.93-.157 1.836-.426 2.7-.802.68-.298 1.308-.816 1.699-1.206.604-.604 1.05-1.16 1.423-2.376.16-.522.37-1.375.468-2.062.048-.329.076-.925.084-1.787a6.783 6.783 0 0 1-.045-.786c0-3.687 2.971-6.675 6.637-6.675 3.666 0 6.637 2.988 6.637 6.675S25.666 29.175 22 29.175c-.206 0-.41-.01-.61-.028zm-14.753.028C2.972 29.175 0 26.187 0 22.5s2.972-6.675 6.637-6.675c3.666 0 6.638 2.988 6.638 6.675s-2.972 6.675-6.638 6.675zM22 45c-3.666 0-6.637-2.988-6.637-6.675S18.334 31.65 22 31.65c3.666 0 6.637 2.988 6.637 6.675S25.666 45 22 45zm47.039-14.795h-1.665v-4.667c0-1.41-.024-2.871-.748-4.102-.772-1.257-2.195-2.077-3.594-2.077-2.413 0-4.32 2.154-4.32 4.692 0 2.513 1.859 4.693 4.271 4.693 1.448 0 2.775-.82 3.764-1.872v2.205a5.776 5.776 0 0 1-3.74 1.359c-3.353 0-6.007-2.82-6.007-6.385 0-3.513 2.678-6.41 6.007-6.41 1.834 0 3.692.949 4.777 2.538 1.134 1.616 1.255 3.385 1.255 5.334v4.692zm12.835 0h-1.665v-6.308c0-.743-.072-1.512-.313-2.23-.483-1.385-1.81-2.308-3.185-2.308-.676 0-1.327.23-1.882.615-1.35.95-1.592 2.308-1.592 3.923v6.308h-1.665v-6.154c0-1.82.169-3.23 1.351-4.64.965-1.129 2.365-1.77 3.788-1.77a4.98 4.98 0 0 1 3.812 1.77c1.182 1.41 1.351 2.82 1.351 4.64v6.154zm12.328-12.384c-.048 2.615-.048 5.743-1.11 8.153-.434 1-3.208 4.154-4.028 4.744l-.724-.539c-1.327-1.076-2.606-2.64-3.306-4.256-1.037-2.385-1.085-5.513-1.11-8.102h1.69c.096 4.435.096 7.487 3.45 10.666.24-.23.482-.461.7-.692 2.653-2.77 2.725-6.282 2.75-9.974h1.688zm4.319-3.693c0 .667-.483 1.257-1.134 1.257-.603 0-1.11-.564-1.11-1.206 0-.64.507-1.179 1.11-1.179.579 0 1.134.487 1.134 1.128zm-.29 16.077h-1.64V17.821h1.64v12.384zm4.633 0h-1.665V13.103h1.665v17.102zm13.583-9.154l-7.962 6.616c.94.795 1.713 1.077 2.943 1.077 1.496 0 2.582-.488 3.885-1.18l.458 1.718c-1.448.692-2.799 1.154-4.39 1.154-3.45 0-6.274-2.692-6.274-6.436 0-3.538 2.727-6.359 6.032-6.359 2.316 0 4.198 1.256 5.308 3.41zm-2.196-.307c-.893-.95-1.761-1.539-3.064-1.539-2.509 0-4.39 2.205-4.39 4.82 0 1.026.168 1.54.65 2.41l6.804-5.691zm6.249-6.616c0 .667-.483 1.257-1.134 1.257-.603 0-1.11-.564-1.11-1.206 0-.64.507-1.179 1.11-1.179.579 0 1.134.487 1.134 1.128zm-.29 16.077h-1.64V17.821h1.64v12.384zm13.752-4.23c0 2.307.048 4.487-1.206 6.487-1.182 1.871-3.233 2.538-5.26 2.538-.989 0-1.978-.154-2.943-.333v-1.77c.965.282 1.954.385 2.943.385 2.606 0 4.44-1.282 4.705-4.154.12-1.205.096-2.436.096-3.666 0-1.436-.024-3.103-.796-4.334-.675-1.102-1.954-1.769-3.184-1.769-2.22 0-4.005 1.897-4.005 4.256 0 2.334 1.76 4.334 3.98 4.334 1.352 0 2.34-.616 3.33-1.539v2.103c-1.013.743-2.075 1.154-3.305 1.154-3.137 0-5.694-2.718-5.694-6.052 0-3.333 2.557-5.974 5.67-5.974 1.978 0 3.787 1.077 4.776 2.897.941 1.693.893 3.539.893 5.436v.001zm12.883 4.23h-1.664v-6.692c0-2.334-.676-4.154-3.16-4.154-.7 0-1.4.18-2.003.538-1.375.795-1.81 2.052-1.81 3.641v6.667h-1.664V13.103h1.664v6.256c1.207-1.205 2.22-1.718 3.885-1.718 3.474 0 4.752 2.513 4.752 5.897v6.667zm8.155.103c-.31.051-.625.077-.94.077-1.183 0-2.39-.385-3.282-1.231-1.303-1.205-1.351-2.795-1.351-4.487V14.128h1.665v3.693H155v1.717h-3.908v4.898c0 2.41.386 4.23 3.064 4.23.29 0 .554-.025.844-.076v1.718z" fill="#79BAF4"/></svg>